<?xml version="1.0" encoding="UTF-8" standalone="no"?>
<svg
   xmlns:dc="http://purl.org/dc/elements/1.1/"
   xmlns:cc="http://creativecommons.org/ns#"
   xmlns:rdf="http://www.w3.org/1999/02/22-rdf-syntax-ns#"
   xmlns:svg="http://www.w3.org/2000/svg"
   xmlns="http://www.w3.org/2000/svg"
   xmlns:sodipodi="http://sodipodi.sourceforge.net/DTD/sodipodi-0.dtd"
   xmlns:inkscape="http://www.inkscape.org/namespaces/inkscape"
   viewBox="0 0 1320 510"
   width="2640px"
   height="1020px"
   id="svg2"
   version="1.1"
   inkscape:version="0.48.4 r9939"
   sodipodi:docname="Context.svg">
  <metadata
     id="metadata134">
    <rdf:RDF>
      <cc:Work
         rdf:about="">
        <dc:format>image/svg+xml</dc:format>
        <dc:type
           rdf:resource="http://purl.org/dc/dcmitype/StillImage" />
      </cc:Work>
    </rdf:RDF>
  </metadata>
  <defs
     id="defs132" />
  <sodipodi:namedview
     pagecolor="#ffffff"
     bordercolor="#666666"
     borderopacity="1"
     objecttolerance="10"
     gridtolerance="10"
     guidetolerance="10"
     inkscape:pageopacity="0"
     inkscape:pageshadow="2"
     inkscape:window-width="1920"
     inkscape:window-height="1025"
     id="namedview130"
     showgrid="false"
     inkscape:zoom="0.48"
     inkscape:cx="1320"
     inkscape:cy="510"
     inkscape:window-x="0"
     inkscape:window-y="27"
     inkscape:window-maximized="1"
     inkscape:current-layer="svg2" />
  <path
     d="M70,410c -1.222, -2.208, -2.718, -3.996, -4.218, -5.246c -1.75, 1.282, -3.882, 2.062, -6.206, 2.062c -2.328, 0, -4.462, -0.782, -6.21, -2.062c -1.5, 1.25, -2.996, 3.038, -4.222, 5.246c -2.844, 5.126, -3.156, 10.384, -0.7, 11.748c 1.1, 0.614, 2.254, 0.156, 3.446, -0.992c -0.21, 1.164, -0.332, 2.426, -0.332, 3.746c 0, 5.864, 2.278, 10.614, 5.086, 10.614c 1.692, 0, 2.53, -1.73, 2.932, -4.378c 0.402, 2.648, 1.24, 4.378, 2.926, 4.378c 2.812, 0, 5.09, -4.75, 5.09, -10.614c 0, -1.32, -0.122, -2.582, -0.336, -3.746c 1.196, 1.148, 2.348, 1.606, 3.45, 0.992 C73.162,420.384,72.844,415.126,70,410z M 59.574,404.816c 4.724, 0, 8.556, -3.832, 8.556, -8.558s, -3.832, -8.558, -8.556, -8.558,c -4.726, 0, -8.56, 3.832, -8.56, 8.558S54.848,404.81,59.574,404.816z M65,381c -0.7515780,-0.5142000 -0.6990756,-0.9420000 -1.8431052,-0.5142000 -3.6005202,0.2610000 -0.7295802,0.2436000 -4.4172258,-0.1152000 -1.5917604,-0.5892000 -2.0858802,3.8466000 -2.5025784,4.1904000 -0.5155596,0.4266000 -5.2704360,0.0240000 -4.9419198,2.9796000 0.0743646,0.6642000 1.4045370,0.5154000 4.1009826,-0.4824000 2.9601450,-1.0974000 5.4507636,-1.0278000 9.0864936,0.1608000 1.4812950,0.4836000 4.5045612,1.0848000 4.8923892,0.9558000 0.9584010,-0.3192000 -2.1803622,-1.6518000 -3.1263870,-2.0160000 -0.5157186,-3.9420000 -0.5185884,-4.3968000 -1.2486492,-5.1588000 z"
     style="stroke:#000000;fill:#ffffff;"
     id="path4" />
  <path
     d="M190,410c -1.222, -2.208, -2.718, -3.996, -4.218, -5.246c -1.75, 1.282, -3.882, 2.062, -6.206, 2.062c -2.328, 0, -4.462, -0.782, -6.21, -2.062c -1.5, 1.25, -2.996, 3.038, -4.222, 5.246c -2.844, 5.126, -3.156, 10.384, -0.7, 11.748c 1.1, 0.614, 2.254, 0.156, 3.446, -0.992c -0.21, 1.164, -0.332, 2.426, -0.332, 3.746c 0, 5.864, 2.278, 10.614, 5.086, 10.614c 1.692, 0, 2.53, -1.73, 2.932, -4.378c 0.402, 2.648, 1.24, 4.378, 2.926, 4.378c 2.812, 0, 5.09, -4.75, 5.09, -10.614c 0, -1.32, -0.122, -2.582, -0.336, -3.746c 1.196, 1.148, 2.348, 1.606, 3.45, 0.992 C193.162,420.384,192.844,415.126,190,410z M 179.574,404.816c 4.724, 0, 8.556, -3.832, 8.556, -8.558s, -3.832, -8.558, -8.556, -8.558,c -4.726, 0, -8.56, 3.832, -8.56, 8.558S174.848,404.81,179.574,404.816z"
     style="stroke:#000000;fill:#ffffff;"
     id="path6" />
  <path
     d="M310,410c -1.222, -2.208, -2.718, -3.996, -4.218, -5.246c -1.75, 1.282, -3.882, 2.062, -6.206, 2.062c -2.328, 0, -4.462, -0.782, -6.21, -2.062c -1.5, 1.25, -2.996, 3.038, -4.222, 5.246c -2.844, 5.126, -3.156, 10.384, -0.7, 11.748c 1.1, 0.614, 2.254, 0.156, 3.446, -0.992c -0.21, 1.164, -0.332, 2.426, -0.332, 3.746c 0, 5.864, 2.278, 10.614, 5.086, 10.614c 1.692, 0, 2.53, -1.73, 2.932, -4.378c 0.402, 2.648, 1.24, 4.378, 2.926, 4.378c 2.812, 0, 5.09, -4.75, 5.09, -10.614c 0, -1.32, -0.122, -2.582, -0.336, -3.746c 1.196, 1.148, 2.348, 1.606, 3.45, 0.992 C313.162,420.384,312.844,415.126,310,410z M 299.574,404.816c 4.724, 0, 8.556, -3.832, 8.556, -8.558s, -3.832, -8.558, -8.556, -8.558,c -4.726, 0, -8.56, 3.832, -8.56, 8.558S294.848,404.81,299.574,404.816z M305,381c -0.7515780,-0.5142000 -0.6990756,-0.9420000 -1.8431052,-0.5142000 -3.6005202,0.2610000 -0.7295802,0.2436000 -4.4172258,-0.1152000 -1.5917604,-0.5892000 -2.0858802,3.8466000 -2.5025784,4.1904000 -0.5155596,0.4266000 -5.2704360,0.0240000 -4.9419198,2.9796000 0.0743646,0.6642000 1.4045370,0.5154000 4.1009826,-0.4824000 2.9601450,-1.0974000 5.4507636,-1.0278000 9.0864936,0.1608000 1.4812950,0.4836000 4.5045612,1.0848000 4.8923892,0.9558000 0.9584010,-0.3192000 -2.1803622,-1.6518000 -3.1263870,-2.0160000 -0.5157186,-3.9420000 -0.5185884,-4.3968000 -1.2486492,-5.1588000 z"
     style="stroke:#000000;fill:#ffffff;"
     id="path8" />
  <path
     d="M430,410c -1.222, -2.208, -2.718, -3.996, -4.218, -5.246c -1.75, 1.282, -3.882, 2.062, -6.206, 2.062c -2.328, 0, -4.462, -0.782, -6.21, -2.062c -1.5, 1.25, -2.996, 3.038, -4.222, 5.246c -2.844, 5.126, -3.156, 10.384, -0.7, 11.748c 1.1, 0.614, 2.254, 0.156, 3.446, -0.992c -0.21, 1.164, -0.332, 2.426, -0.332, 3.746c 0, 5.864, 2.278, 10.614, 5.086, 10.614c 1.692, 0, 2.53, -1.73, 2.932, -4.378c 0.402, 2.648, 1.24, 4.378, 2.926, 4.378c 2.812, 0, 5.09, -4.75, 5.09, -10.614c 0, -1.32, -0.122, -2.582, -0.336, -3.746c 1.196, 1.148, 2.348, 1.606, 3.45, 0.992 C433.162,420.384,432.844,415.126,430,410z M 419.574,404.816c 4.724, 0, 8.556, -3.832, 8.556, -8.558s, -3.832, -8.558, -8.556, -8.558,c -4.726, 0, -8.56, 3.832, -8.56, 8.558S414.848,404.81,419.574,404.816z"
     style="stroke:#000000;fill:#ffffff;"
     id="path10" />
  <path
     d="M550,410c -1.222, -2.208, -2.718, -3.996, -4.218, -5.246c -1.75, 1.282, -3.882, 2.062, -6.206, 2.062c -2.328, 0, -4.462, -0.782, -6.21, -2.062c -1.5, 1.25, -2.996, 3.038, -4.222, 5.246c -2.844, 5.126, -3.156, 10.384, -0.7, 11.748c 1.1, 0.614, 2.254, 0.156, 3.446, -0.992c -0.21, 1.164, -0.332, 2.426, -0.332, 3.746c 0, 5.864, 2.278, 10.614, 5.086, 10.614c 1.692, 0, 2.53, -1.73, 2.932, -4.378c 0.402, 2.648, 1.24, 4.378, 2.926, 4.378c 2.812, 0, 5.09, -4.75, 5.09, -10.614c 0, -1.32, -0.122, -2.582, -0.336, -3.746c 1.196, 1.148, 2.348, 1.606, 3.45, 0.992 C553.162,420.384,552.844,415.126,550,410z M 539.574,404.816c 4.724, 0, 8.556, -3.832, 8.556, -8.558s, -3.832, -8.558, -8.556, -8.558,c -4.726, 0, -8.56, 3.832, -8.56, 8.558S534.848,404.81,539.574,404.816z"
     style="stroke:#000000;fill:#ffffff;"
     id="path12" />
  <path
     d="M670,410c -1.222, -2.208, -2.718, -3.996, -4.218, -5.246c -1.75, 1.282, -3.882, 2.062, -6.206, 2.062c -2.328, 0, -4.462, -0.782, -6.21, -2.062c -1.5, 1.25, -2.996, 3.038, -4.222, 5.246c -2.844, 5.126, -3.156, 10.384, -0.7, 11.748c 1.1, 0.614, 2.254, 0.156, 3.446, -0.992c -0.21, 1.164, -0.332, 2.426, -0.332, 3.746c 0, 5.864, 2.278, 10.614, 5.086, 10.614c 1.692, 0, 2.53, -1.73, 2.932, -4.378c 0.402, 2.648, 1.24, 4.378, 2.926, 4.378c 2.812, 0, 5.09, -4.75, 5.09, -10.614c 0, -1.32, -0.122, -2.582, -0.336, -3.746c 1.196, 1.148, 2.348, 1.606, 3.45, 0.992 C673.162,420.384,672.844,415.126,670,410z M 659.574,404.816c 4.724, 0, 8.556, -3.832, 8.556, -8.558s, -3.832, -8.558, -8.556, -8.558,c -4.726, 0, -8.56, 3.832, -8.56, 8.558S654.848,404.81,659.574,404.816z"
     style="stroke:black;fill:#ffffff;"
     id="path14" />
  <path
     d="M790,410c -1.222, -2.208, -2.718, -3.996, -4.218, -5.246c -1.75, 1.282, -3.882, 2.062, -6.206, 2.062c -2.328, 0, -4.462, -0.782, -6.21, -2.062c -1.5, 1.25, -2.996, 3.038, -4.222, 5.246c -2.844, 5.126, -3.156, 10.384, -0.7, 11.748c 1.1, 0.614, 2.254, 0.156, 3.446, -0.992c -0.21, 1.164, -0.332, 2.426, -0.332, 3.746c 0, 5.864, 2.278, 10.614, 5.086, 10.614c 1.692, 0, 2.53, -1.73, 2.932, -4.378c 0.402, 2.648, 1.24, 4.378, 2.926, 4.378c 2.812, 0, 5.09, -4.75, 5.09, -10.614c 0, -1.32, -0.122, -2.582, -0.336, -3.746c 1.196, 1.148, 2.348, 1.606, 3.45, 0.992 C793.162,420.384,792.844,415.126,790,410z M 779.574,404.816c 4.724, 0, 8.556, -3.832, 8.556, -8.558s, -3.832, -8.558, -8.556, -8.558,c -4.726, 0, -8.56, 3.832, -8.56, 8.558S774.848,404.81,779.574,404.816z M785,381c -0.7515780,-0.5142000 -0.6990756,-0.9420000 -1.8431052,-0.5142000 -3.6005202,0.2610000 -0.7295802,0.2436000 -4.4172258,-0.1152000 -1.5917604,-0.5892000 -2.0858802,3.8466000 -2.5025784,4.1904000 -0.5155596,0.4266000 -5.2704360,0.0240000 -4.9419198,2.9796000 0.0743646,0.6642000 1.4045370,0.5154000 4.1009826,-0.4824000 2.9601450,-1.0974000 5.4507636,-1.0278000 9.0864936,0.1608000 1.4812950,0.4836000 4.5045612,1.0848000 4.8923892,0.9558000 0.9584010,-0.3192000 -2.1803622,-1.6518000 -3.1263870,-2.0160000 -0.5157186,-3.9420000 -0.5185884,-4.3968000 -1.2486492,-5.1588000 z"
     style="stroke:#000000;fill:#ffffff;"
     id="path16" />
  <path
     d="M910,410c -1.222, -2.208, -2.718, -3.996, -4.218, -5.246c -1.75, 1.282, -3.882, 2.062, -6.206, 2.062c -2.328, 0, -4.462, -0.782, -6.21, -2.062c -1.5, 1.25, -2.996, 3.038, -4.222, 5.246c -2.844, 5.126, -3.156, 10.384, -0.7, 11.748c 1.1, 0.614, 2.254, 0.156, 3.446, -0.992c -0.21, 1.164, -0.332, 2.426, -0.332, 3.746c 0, 5.864, 2.278, 10.614, 5.086, 10.614c 1.692, 0, 2.53, -1.73, 2.932, -4.378c 0.402, 2.648, 1.24, 4.378, 2.926, 4.378c 2.812, 0, 5.09, -4.75, 5.09, -10.614c 0, -1.32, -0.122, -2.582, -0.336, -3.746c 1.196, 1.148, 2.348, 1.606, 3.45, 0.992 C913.162,420.384,912.844,415.126,910,410z M 899.574,404.816c 4.724, 0, 8.556, -3.832, 8.556, -8.558s, -3.832, -8.558, -8.556, -8.558,c -4.726, 0, -8.56, 3.832, -8.56, 8.558S894.848,404.81,899.574,404.816z"
     style="stroke:#000000;fill:#ffffff;"
     id="path18" />
  <path
     d="M1030,410c -1.222, -2.208, -2.718, -3.996, -4.218, -5.246c -1.75, 1.282, -3.882, 2.062, -6.206, 2.062c -2.328, 0, -4.462, -0.782, -6.21, -2.062c -1.5, 1.25, -2.996, 3.038, -4.222, 5.246c -2.844, 5.126, -3.156, 10.384, -0.7, 11.748c 1.1, 0.614, 2.254, 0.156, 3.446, -0.992c -0.21, 1.164, -0.332, 2.426, -0.332, 3.746c 0, 5.864, 2.278, 10.614, 5.086, 10.614c 1.692, 0, 2.53, -1.73, 2.932, -4.378c 0.402, 2.648, 1.24, 4.378, 2.926, 4.378c 2.812, 0, 5.09, -4.75, 5.09, -10.614c 0, -1.32, -0.122, -2.582, -0.336, -3.746c 1.196, 1.148, 2.348, 1.606, 3.45, 0.992 C1033.162,420.384,1032.844,415.126,1030,410z M 1019.574,404.816c 4.724, 0, 8.556, -3.832, 8.556, -8.558s, -3.832, -8.558, -8.556, -8.558,c -4.726, 0, -8.56, 3.832, -8.56, 8.558S1014.848,404.81,1019.574,404.816z M1025,381c -0.7515780,-0.5142000 -0.6990756,-0.9420000 -1.8431052,-0.5142000 -3.6005202,0.2610000 -0.7295802,0.2436000 -4.4172258,-0.1152000 -1.5917604,-0.5892000 -2.0858802,3.8466000 -2.5025784,4.1904000 -0.5155596,0.4266000 -5.2704360,0.0240000 -4.9419198,2.9796000 0.0743646,0.6642000 1.4045370,0.5154000 4.1009826,-0.4824000 2.9601450,-1.0974000 5.4507636,-1.0278000 9.0864936,0.1608000 1.4812950,0.4836000 4.5045612,1.0848000 4.8923892,0.9558000 0.9584010,-0.3192000 -2.1803622,-1.6518000 -3.1263870,-2.0160000 -0.5157186,-3.9420000 -0.5185884,-4.3968000 -1.2486492,-5.1588000 z"
     style="stroke:#000000;fill:#ffffff;"
     id="path20" />
  <path
     d="M1150,410c -1.222, -2.208, -2.718, -3.996, -4.218, -5.246c -1.75, 1.282, -3.882, 2.062, -6.206, 2.062c -2.328, 0, -4.462, -0.782, -6.21, -2.062c -1.5, 1.25, -2.996, 3.038, -4.222, 5.246c -2.844, 5.126, -3.156, 10.384, -0.7, 11.748c 1.1, 0.614, 2.254, 0.156, 3.446, -0.992c -0.21, 1.164, -0.332, 2.426, -0.332, 3.746c 0, 5.864, 2.278, 10.614, 5.086, 10.614c 1.692, 0, 2.53, -1.73, 2.932, -4.378c 0.402, 2.648, 1.24, 4.378, 2.926, 4.378c 2.812, 0, 5.09, -4.75, 5.09, -10.614c 0, -1.32, -0.122, -2.582, -0.336, -3.746c 1.196, 1.148, 2.348, 1.606, 3.45, 0.992 C1153.162,420.384,1152.844,415.126,1150,410z M 1139.574,404.816c 4.724, 0, 8.556, -3.832, 8.556, -8.558s, -3.832, -8.558, -8.556, -8.558,c -4.726, 0, -8.56, 3.832, -8.56, 8.558S1134.848,404.81,1139.574,404.816z M1145,381c -0.7515780,-0.5142000 -0.6990756,-0.9420000 -1.8431052,-0.5142000 -3.6005202,0.2610000 -0.7295802,0.2436000 -4.4172258,-0.1152000 -1.5917604,-0.5892000 -2.0858802,3.8466000 -2.5025784,4.1904000 -0.5155596,0.4266000 -5.2704360,0.0240000 -4.9419198,2.9796000 0.0743646,0.6642000 1.4045370,0.5154000 4.1009826,-0.4824000 2.9601450,-1.0974000 5.4507636,-1.0278000 9.0864936,0.1608000 1.4812950,0.4836000 4.5045612,1.0848000 4.8923892,0.9558000 0.9584010,-0.3192000 -2.1803622,-1.6518000 -3.1263870,-2.0160000 -0.5157186,-3.9420000 -0.5185884,-4.3968000 -1.2486492,-5.1588000 z"
     style="stroke:#000000;fill:#ffffff;"
     id="path22" />
  <path
     d="M1270,410c -1.222, -2.208, -2.718, -3.996, -4.218, -5.246c -1.75, 1.282, -3.882, 2.062, -6.206, 2.062c -2.328, 0, -4.462, -0.782, -6.21, -2.062c -1.5, 1.25, -2.996, 3.038, -4.222, 5.246c -2.844, 5.126, -3.156, 10.384, -0.7, 11.748c 1.1, 0.614, 2.254, 0.156, 3.446, -0.992c -0.21, 1.164, -0.332, 2.426, -0.332, 3.746c 0, 5.864, 2.278, 10.614, 5.086, 10.614c 1.692, 0, 2.53, -1.73, 2.932, -4.378c 0.402, 2.648, 1.24, 4.378, 2.926, 4.378c 2.812, 0, 5.09, -4.75, 5.09, -10.614c 0, -1.32, -0.122, -2.582, -0.336, -3.746c 1.196, 1.148, 2.348, 1.606, 3.45, 0.992 C1273.162,420.384,1272.844,415.126,1270,410z M 1259.574,404.816c 4.724, 0, 8.556, -3.832, 8.556, -8.558s, -3.832, -8.558, -8.556, -8.558,c -4.726, 0, -8.56, 3.832, -8.56, 8.558S1254.848,404.81,1259.574,404.816z"
     style="stroke:#000000;fill:#ffffff;"
     id="path24" />
  <path
     d="M70,290c -1.222, -2.208, -2.718, -3.996, -4.218, -5.246c -1.75, 1.282, -3.882, 2.062, -6.206, 2.062c -2.328, 0, -4.462, -0.782, -6.21, -2.062c -1.5, 1.25, -2.996, 3.038, -4.222, 5.246c -2.844, 5.126, -3.156, 10.384, -0.7, 11.748c 1.1, 0.614, 2.254, 0.156, 3.446, -0.992c -0.21, 1.164, -0.332, 2.426, -0.332, 3.746c 0, 5.864, 2.278, 10.614, 5.086, 10.614c 1.692, 0, 2.53, -1.73, 2.932, -4.378c 0.402, 2.648, 1.24, 4.378, 2.926, 4.378c 2.812, 0, 5.09, -4.75, 5.09, -10.614c 0, -1.32, -0.122, -2.582, -0.336, -3.746c 1.196, 1.148, 2.348, 1.606, 3.45, 0.992 C73.162,300.384,72.844,295.126,70,290z M 59.574,284.816c 4.724, 0, 8.556, -3.832, 8.556, -8.558s, -3.832, -8.558, -8.556, -8.558,c -4.726, 0, -8.56, 3.832, -8.56, 8.558S54.848,284.81,59.574,284.816z M65,261c -0.7515780,-0.5142000 -0.6990756,-0.9420000 -1.8431052,-0.5142000 -3.6005202,0.2610000 -0.7295802,0.2436000 -4.4172258,-0.1152000 -1.5917604,-0.5892000 -2.0858802,3.8466000 -2.5025784,4.1904000 -0.5155596,0.4266000 -5.2704360,0.0240000 -4.9419198,2.9796000 0.0743646,0.6642000 1.4045370,0.5154000 4.1009826,-0.4824000 2.9601450,-1.0974000 5.4507636,-1.0278000 9.0864936,0.1608000 1.4812950,0.4836000 4.5045612,1.0848000 4.8923892,0.9558000 0.9584010,-0.3192000 -2.1803622,-1.6518000 -3.1263870,-2.0160000 -0.5157186,-3.9420000 -0.5185884,-4.3968000 -1.2486492,-5.1588000 z"
     style="stroke:#000000;fill:#ffffff;"
     id="path26" />
  <path
     d="M190,290c -1.222, -2.208, -2.718, -3.996, -4.218, -5.246c -1.75, 1.282, -3.882, 2.062, -6.206, 2.062c -2.328, 0, -4.462, -0.782, -6.21, -2.062c -1.5, 1.25, -2.996, 3.038, -4.222, 5.246c -2.844, 5.126, -3.156, 10.384, -0.7, 11.748c 1.1, 0.614, 2.254, 0.156, 3.446, -0.992c -0.21, 1.164, -0.332, 2.426, -0.332, 3.746c 0, 5.864, 2.278, 10.614, 5.086, 10.614c 1.692, 0, 2.53, -1.73, 2.932, -4.378c 0.402, 2.648, 1.24, 4.378, 2.926, 4.378c 2.812, 0, 5.09, -4.75, 5.09, -10.614c 0, -1.32, -0.122, -2.582, -0.336, -3.746c 1.196, 1.148, 2.348, 1.606, 3.45, 0.992 C193.162,300.384,192.844,295.126,190,290z M 179.574,284.816c 4.724, 0, 8.556, -3.832, 8.556, -8.558s, -3.832, -8.558, -8.556, -8.558,c -4.726, 0, -8.56, 3.832, -8.56, 8.558S174.848,284.81,179.574,284.816z"
     style="stroke:#000000;fill:#ffffff;"
     id="path28" />
  <path
     d="M310,290c -1.222, -2.208, -2.718, -3.996, -4.218, -5.246c -1.75, 1.282, -3.882, 2.062, -6.206, 2.062c -2.328, 0, -4.462, -0.782, -6.21, -2.062c -1.5, 1.25, -2.996, 3.038, -4.222, 5.246c -2.844, 5.126, -3.156, 10.384, -0.7, 11.748c 1.1, 0.614, 2.254, 0.156, 3.446, -0.992c -0.21, 1.164, -0.332, 2.426, -0.332, 3.746c 0, 5.864, 2.278, 10.614, 5.086, 10.614c 1.692, 0, 2.53, -1.73, 2.932, -4.378c 0.402, 2.648, 1.24, 4.378, 2.926, 4.378c 2.812, 0, 5.09, -4.75, 5.09, -10.614c 0, -1.32, -0.122, -2.582, -0.336, -3.746c 1.196, 1.148, 2.348, 1.606, 3.45, 0.992 C313.162,300.384,312.844,295.126,310,290z M 299.574,284.816c 4.724, 0, 8.556, -3.832, 8.556, -8.558s, -3.832, -8.558, -8.556, -8.558,c -4.726, 0, -8.56, 3.832, -8.56, 8.558S294.848,284.81,299.574,284.816z M305,261c -0.7515780,-0.5142000 -0.6990756,-0.9420000 -1.8431052,-0.5142000 -3.6005202,0.2610000 -0.7295802,0.2436000 -4.4172258,-0.1152000 -1.5917604,-0.5892000 -2.0858802,3.8466000 -2.5025784,4.1904000 -0.5155596,0.4266000 -5.2704360,0.0240000 -4.9419198,2.9796000 0.0743646,0.6642000 1.4045370,0.5154000 4.1009826,-0.4824000 2.9601450,-1.0974000 5.4507636,-1.0278000 9.0864936,0.1608000 1.4812950,0.4836000 4.5045612,1.0848000 4.8923892,0.9558000 0.9584010,-0.3192000 -2.1803622,-1.6518000 -3.1263870,-2.0160000 -0.5157186,-3.9420000 -0.5185884,-4.3968000 -1.2486492,-5.1588000 z"
     style="stroke:#000000;fill:#ffffff;"
     id="path30" />
  <path
     d="M430,290c -1.222, -2.208, -2.718, -3.996, -4.218, -5.246c -1.75, 1.282, -3.882, 2.062, -6.206, 2.062c -2.328, 0, -4.462, -0.782, -6.21, -2.062c -1.5, 1.25, -2.996, 3.038, -4.222, 5.246c -2.844, 5.126, -3.156, 10.384, -0.7, 11.748c 1.1, 0.614, 2.254, 0.156, 3.446, -0.992c -0.21, 1.164, -0.332, 2.426, -0.332, 3.746c 0, 5.864, 2.278, 10.614, 5.086, 10.614c 1.692, 0, 2.53, -1.73, 2.932, -4.378c 0.402, 2.648, 1.24, 4.378, 2.926, 4.378c 2.812, 0, 5.09, -4.75, 5.09, -10.614c 0, -1.32, -0.122, -2.582, -0.336, -3.746c 1.196, 1.148, 2.348, 1.606, 3.45, 0.992 C433.162,300.384,432.844,295.126,430,290z M 419.574,284.816c 4.724, 0, 8.556, -3.832, 8.556, -8.558s, -3.832, -8.558, -8.556, -8.558,c -4.726, 0, -8.56, 3.832, -8.56, 8.558S414.848,284.81,419.574,284.816z"
     style="stroke:#000000;fill:#ffffff;"
     id="path32" />
  <path
     d="M610,290c -1.222, -2.208, -2.718, -3.996, -4.218, -5.246c -1.75, 1.282, -3.882, 2.062, -6.206, 2.062c -2.328, 0, -4.462, -0.782, -6.21, -2.062c -1.5, 1.25, -2.996, 3.038, -4.222, 5.246c -2.844, 5.126, -3.156, 10.384, -0.7, 11.748c 1.1, 0.614, 2.254, 0.156, 3.446, -0.992c -0.21, 1.164, -0.332, 2.426, -0.332, 3.746c 0, 5.864, 2.278, 10.614, 5.086, 10.614c 1.692, 0, 2.53, -1.73, 2.932, -4.378c 0.402, 2.648, 1.24, 4.378, 2.926, 4.378c 2.812, 0, 5.09, -4.75, 5.09, -10.614c 0, -1.32, -0.122, -2.582, -0.336, -3.746c 1.196, 1.148, 2.348, 1.606, 3.45, 0.992 C613.162,300.384,612.844,295.126,610,290z M 599.574,284.816c 4.724, 0, 8.556, -3.832, 8.556, -8.558s, -3.832, -8.558, -8.556, -8.558,c -4.726, 0, -8.56, 3.832, -8.56, 8.558S594.848,284.81,599.574,284.816z"
     style="stroke:#000000;fill:#ffffff;"
     id="path34" />
  <path
     d="M730,290c -1.222, -2.208, -2.718, -3.996, -4.218, -5.246c -1.75, 1.282, -3.882, 2.062, -6.206, 2.062c -2.328, 0, -4.462, -0.782, -6.21, -2.062c -1.5, 1.25, -2.996, 3.038, -4.222, 5.246c -2.844, 5.126, -3.156, 10.384, -0.7, 11.748c 1.1, 0.614, 2.254, 0.156, 3.446, -0.992c -0.21, 1.164, -0.332, 2.426, -0.332, 3.746c 0, 5.864, 2.278, 10.614, 5.086, 10.614c 1.692, 0, 2.53, -1.73, 2.932, -4.378c 0.402, 2.648, 1.24, 4.378, 2.926, 4.378c 2.812, 0, 5.09, -4.75, 5.09, -10.614c 0, -1.32, -0.122, -2.582, -0.336, -3.746c 1.196, 1.148, 2.348, 1.606, 3.45, 0.992 C733.162,300.384,732.844,295.126,730,290z M 719.574,284.816c 4.724, 0, 8.556, -3.832, 8.556, -8.558s, -3.832, -8.558, -8.556, -8.558,c -4.726, 0, -8.56, 3.832, -8.56, 8.558S714.848,284.81,719.574,284.816z M725,261c -0.7515780,-0.5142000 -0.6990756,-0.9420000 -1.8431052,-0.5142000 -3.6005202,0.2610000 -0.7295802,0.2436000 -4.4172258,-0.1152000 -1.5917604,-0.5892000 -2.0858802,3.8466000 -2.5025784,4.1904000 -0.5155596,0.4266000 -5.2704360,0.0240000 -4.9419198,2.9796000 0.0743646,0.6642000 1.4045370,0.5154000 4.1009826,-0.4824000 2.9601450,-1.0974000 5.4507636,-1.0278000 9.0864936,0.1608000 1.4812950,0.4836000 4.5045612,1.0848000 4.8923892,0.9558000 0.9584010,-0.3192000 -2.1803622,-1.6518000 -3.1263870,-2.0160000 -0.5157186,-3.9420000 -0.5185884,-4.3968000 -1.2486492,-5.1588000 z"
     style="stroke:#000000;fill:#ffffff;"
     id="path36" />
  <path
     d="M910,290c -1.222, -2.208, -2.718, -3.996, -4.218, -5.246c -1.75, 1.282, -3.882, 2.062, -6.206, 2.062c -2.328, 0, -4.462, -0.782, -6.21, -2.062c -1.5, 1.25, -2.996, 3.038, -4.222, 5.246c -2.844, 5.126, -3.156, 10.384, -0.7, 11.748c 1.1, 0.614, 2.254, 0.156, 3.446, -0.992c -0.21, 1.164, -0.332, 2.426, -0.332, 3.746c 0, 5.864, 2.278, 10.614, 5.086, 10.614c 1.692, 0, 2.53, -1.73, 2.932, -4.378c 0.402, 2.648, 1.24, 4.378, 2.926, 4.378c 2.812, 0, 5.09, -4.75, 5.09, -10.614c 0, -1.32, -0.122, -2.582, -0.336, -3.746c 1.196, 1.148, 2.348, 1.606, 3.45, 0.992 C913.162,300.384,912.844,295.126,910,290z M 899.574,284.816c 4.724, 0, 8.556, -3.832, 8.556, -8.558s, -3.832, -8.558, -8.556, -8.558,c -4.726, 0, -8.56, 3.832, -8.56, 8.558S894.848,284.81,899.574,284.816z M905,261c -0.7515780,-0.5142000 -0.6990756,-0.9420000 -1.8431052,-0.5142000 -3.6005202,0.2610000 -0.7295802,0.2436000 -4.4172258,-0.1152000 -1.5917604,-0.5892000 -2.0858802,3.8466000 -2.5025784,4.1904000 -0.5155596,0.4266000 -5.2704360,0.0240000 -4.9419198,2.9796000 0.0743646,0.6642000 1.4045370,0.5154000 4.1009826,-0.4824000 2.9601450,-1.0974000 5.4507636,-1.0278000 9.0864936,0.1608000 1.4812950,0.4836000 4.5045612,1.0848000 4.8923892,0.9558000 0.9584010,-0.3192000 -2.1803622,-1.6518000 -3.1263870,-2.0160000 -0.5157186,-3.9420000 -0.5185884,-4.3968000 -1.2486492,-5.1588000 z"
     style="stroke:#000000;fill:#ffffff;"
     id="path38" />
  <path
     d="M1030,290c -1.222, -2.208, -2.718, -3.996, -4.218, -5.246c -1.75, 1.282, -3.882, 2.062, -6.206, 2.062c -2.328, 0, -4.462, -0.782, -6.21, -2.062c -1.5, 1.25, -2.996, 3.038, -4.222, 5.246c -2.844, 5.126, -3.156, 10.384, -0.7, 11.748c 1.1, 0.614, 2.254, 0.156, 3.446, -0.992c -0.21, 1.164, -0.332, 2.426, -0.332, 3.746c 0, 5.864, 2.278, 10.614, 5.086, 10.614c 1.692, 0, 2.53, -1.73, 2.932, -4.378c 0.402, 2.648, 1.24, 4.378, 2.926, 4.378c 2.812, 0, 5.09, -4.75, 5.09, -10.614c 0, -1.32, -0.122, -2.582, -0.336, -3.746c 1.196, 1.148, 2.348, 1.606, 3.45, 0.992 C1033.162,300.384,1032.844,295.126,1030,290z M 1019.574,284.816c 4.724, 0, 8.556, -3.832, 8.556, -8.558s, -3.832, -8.558, -8.556, -8.558,c -4.726, 0, -8.56, 3.832, -8.56, 8.558S1014.848,284.81,1019.574,284.816z"
     style="stroke:#000000;fill:#ffffff;"
     id="path40" />
  <path
     d="M1150,290c -1.222, -2.208, -2.718, -3.996, -4.218, -5.246c -1.75, 1.282, -3.882, 2.062, -6.206, 2.062c -2.328, 0, -4.462, -0.782, -6.21, -2.062c -1.5, 1.25, -2.996, 3.038, -4.222, 5.246c -2.844, 5.126, -3.156, 10.384, -0.7, 11.748c 1.1, 0.614, 2.254, 0.156, 3.446, -0.992c -0.21, 1.164, -0.332, 2.426, -0.332, 3.746c 0, 5.864, 2.278, 10.614, 5.086, 10.614c 1.692, 0, 2.53, -1.73, 2.932, -4.378c 0.402, 2.648, 1.24, 4.378, 2.926, 4.378c 2.812, 0, 5.09, -4.75, 5.09, -10.614c 0, -1.32, -0.122, -2.582, -0.336, -3.746c 1.196, 1.148, 2.348, 1.606, 3.45, 0.992 C1153.162,300.384,1152.844,295.126,1150,290z M 1139.574,284.816c 4.724, 0, 8.556, -3.832, 8.556, -8.558s, -3.832, -8.558, -8.556, -8.558,c -4.726, 0, -8.56, 3.832, -8.56, 8.558S1134.848,284.81,1139.574,284.816z M1145,261c -0.7515780,-0.5142000 -0.6990756,-0.9420000 -1.8431052,-0.5142000 -3.6005202,0.2610000 -0.7295802,0.2436000 -4.4172258,-0.1152000 -1.5917604,-0.5892000 -2.0858802,3.8466000 -2.5025784,4.1904000 -0.5155596,0.4266000 -5.2704360,0.0240000 -4.9419198,2.9796000 0.0743646,0.6642000 1.4045370,0.5154000 4.1009826,-0.4824000 2.9601450,-1.0974000 5.4507636,-1.0278000 9.0864936,0.1608000 1.4812950,0.4836000 4.5045612,1.0848000 4.8923892,0.9558000 0.9584010,-0.3192000 -2.1803622,-1.6518000 -3.1263870,-2.0160000 -0.5157186,-3.9420000 -0.5185884,-4.3968000 -1.2486492,-5.1588000 z"
     style="stroke:#000000;fill:#ffffff;"
     id="path42" />
  <path
     d="M1270,290c -1.222, -2.208, -2.718, -3.996, -4.218, -5.246c -1.75, 1.282, -3.882, 2.062, -6.206, 2.062c -2.328, 0, -4.462, -0.782, -6.21, -2.062c -1.5, 1.25, -2.996, 3.038, -4.222, 5.246c -2.844, 5.126, -3.156, 10.384, -0.7, 11.748c 1.1, 0.614, 2.254, 0.156, 3.446, -0.992c -0.21, 1.164, -0.332, 2.426, -0.332, 3.746c 0, 5.864, 2.278, 10.614, 5.086, 10.614c 1.692, 0, 2.53, -1.73, 2.932, -4.378c 0.402, 2.648, 1.24, 4.378, 2.926, 4.378c 2.812, 0, 5.09, -4.75, 5.09, -10.614c 0, -1.32, -0.122, -2.582, -0.336, -3.746c 1.196, 1.148, 2.348, 1.606, 3.45, 0.992 C1273.162,300.384,1272.844,295.126,1270,290z M 1259.574,284.816c 4.724, 0, 8.556, -3.832, 8.556, -8.558s, -3.832, -8.558, -8.556, -8.558,c -4.726, 0, -8.56, 3.832, -8.56, 8.558S1254.848,284.81,1259.574,284.816z"
     style="stroke:#000000;fill:#ffffff;"
     id="path44" />
  <path
     d="M190,170c -1.222, -2.208, -2.718, -3.996, -4.218, -5.246c -1.75, 1.282, -3.882, 2.062, -6.206, 2.062c -2.328, 0, -4.462, -0.782, -6.21, -2.062c -1.5, 1.25, -2.996, 3.038, -4.222, 5.246c -2.844, 5.126, -3.156, 10.384, -0.7, 11.748c 1.1, 0.614, 2.254, 0.156, 3.446, -0.992c -0.21, 1.164, -0.332, 2.426, -0.332, 3.746c 0, 5.864, 2.278, 10.614, 5.086, 10.614c 1.692, 0, 2.53, -1.73, 2.932, -4.378c 0.402, 2.648, 1.24, 4.378, 2.926, 4.378c 2.812, 0, 5.09, -4.75, 5.09, -10.614c 0, -1.32, -0.122, -2.582, -0.336, -3.746c 1.196, 1.148, 2.348, 1.606, 3.45, 0.992 C193.162,180.384,192.844,175.126,190,170z M 179.574,164.816c 4.724, 0, 8.556, -3.832, 8.556, -8.558s, -3.832, -8.558, -8.556, -8.558,c -4.726, 0, -8.56, 3.832, -8.56, 8.558S174.848,164.81,179.574,164.816z"
     style="stroke:#000000;fill:#ffffff;"
     id="path46" />
  <path
     d="M310,170c -1.222, -2.208, -2.718, -3.996, -4.218, -5.246c -1.75, 1.282, -3.882, 2.062, -6.206, 2.062c -2.328, 0, -4.462, -0.782, -6.21, -2.062c -1.5, 1.25, -2.996, 3.038, -4.222, 5.246c -2.844, 5.126, -3.156, 10.384, -0.7, 11.748c 1.1, 0.614, 2.254, 0.156, 3.446, -0.992c -0.21, 1.164, -0.332, 2.426, -0.332, 3.746c 0, 5.864, 2.278, 10.614, 5.086, 10.614c 1.692, 0, 2.53, -1.73, 2.932, -4.378c 0.402, 2.648, 1.24, 4.378, 2.926, 4.378c 2.812, 0, 5.09, -4.75, 5.09, -10.614c 0, -1.32, -0.122, -2.582, -0.336, -3.746c 1.196, 1.148, 2.348, 1.606, 3.45, 0.992 C313.162,180.384,312.844,175.126,310,170z M 299.574,164.816c 4.724, 0, 8.556, -3.832, 8.556, -8.558s, -3.832, -8.558, -8.556, -8.558,c -4.726, 0, -8.56, 3.832, -8.56, 8.558S294.848,164.81,299.574,164.816z M305,141c -0.7515780,-0.5142000 -0.6990756,-0.9420000 -1.8431052,-0.5142000 -3.6005202,0.2610000 -0.7295802,0.2436000 -4.4172258,-0.1152000 -1.5917604,-0.5892000 -2.0858802,3.8466000 -2.5025784,4.1904000 -0.5155596,0.4266000 -5.2704360,0.0240000 -4.9419198,2.9796000 0.0743646,0.6642000 1.4045370,0.5154000 4.1009826,-0.4824000 2.9601450,-1.0974000 5.4507636,-1.0278000 9.0864936,0.1608000 1.4812950,0.4836000 4.5045612,1.0848000 4.8923892,0.9558000 0.9584010,-0.3192000 -2.1803622,-1.6518000 -3.1263870,-2.0160000 -0.5157186,-3.9420000 -0.5185884,-4.3968000 -1.2486492,-5.1588000 z"
     style="stroke:#000000;fill:#ffffff;"
     id="path48" />
  <path
     d="M430,170c -1.222, -2.208, -2.718, -3.996, -4.218, -5.246c -1.75, 1.282, -3.882, 2.062, -6.206, 2.062c -2.328, 0, -4.462, -0.782, -6.21, -2.062c -1.5, 1.25, -2.996, 3.038, -4.222, 5.246c -2.844, 5.126, -3.156, 10.384, -0.7, 11.748c 1.1, 0.614, 2.254, 0.156, 3.446, -0.992c -0.21, 1.164, -0.332, 2.426, -0.332, 3.746c 0, 5.864, 2.278, 10.614, 5.086, 10.614c 1.692, 0, 2.53, -1.73, 2.932, -4.378c 0.402, 2.648, 1.24, 4.378, 2.926, 4.378c 2.812, 0, 5.09, -4.75, 5.09, -10.614c 0, -1.32, -0.122, -2.582, -0.336, -3.746c 1.196, 1.148, 2.348, 1.606, 3.45, 0.992 C433.162,180.384,432.844,175.126,430,170z M 419.574,164.816c 4.724, 0, 8.556, -3.832, 8.556, -8.558s, -3.832, -8.558, -8.556, -8.558,c -4.726, 0, -8.56, 3.832, -8.56, 8.558S414.848,164.81,419.574,164.816z"
     style="stroke:#000000;fill:#ffffff;"
     id="path50" />
  <path
     d="M550,170c -1.222, -2.208, -2.718, -3.996, -4.218, -5.246c -1.75, 1.282, -3.882, 2.062, -6.206, 2.062c -2.328, 0, -4.462, -0.782, -6.21, -2.062c -1.5, 1.25, -2.996, 3.038, -4.222, 5.246c -2.844, 5.126, -3.156, 10.384, -0.7, 11.748c 1.1, 0.614, 2.254, 0.156, 3.446, -0.992c -0.21, 1.164, -0.332, 2.426, -0.332, 3.746c 0, 5.864, 2.278, 10.614, 5.086, 10.614c 1.692, 0, 2.53, -1.73, 2.932, -4.378c 0.402, 2.648, 1.24, 4.378, 2.926, 4.378c 2.812, 0, 5.09, -4.75, 5.09, -10.614c 0, -1.32, -0.122, -2.582, -0.336, -3.746c 1.196, 1.148, 2.348, 1.606, 3.45, 0.992 C553.162,180.384,552.844,175.126,550,170z M 539.574,164.816c 4.724, 0, 8.556, -3.832, 8.556, -8.558s, -3.832, -8.558, -8.556, -8.558,c -4.726, 0, -8.56, 3.832, -8.56, 8.558S534.848,164.81,539.574,164.816z M545,141c -0.7515780,-0.5142000 -0.6990756,-0.9420000 -1.8431052,-0.5142000 -3.6005202,0.2610000 -0.7295802,0.2436000 -4.4172258,-0.1152000 -1.5917604,-0.5892000 -2.0858802,3.8466000 -2.5025784,4.1904000 -0.5155596,0.4266000 -5.2704360,0.0240000 -4.9419198,2.9796000 0.0743646,0.6642000 1.4045370,0.5154000 4.1009826,-0.4824000 2.9601450,-1.0974000 5.4507636,-1.0278000 9.0864936,0.1608000 1.4812950,0.4836000 4.5045612,1.0848000 4.8923892,0.9558000 0.9584010,-0.3192000 -2.1803622,-1.6518000 -3.1263870,-2.0160000 -0.5157186,-3.9420000 -0.5185884,-4.3968000 -1.2486492,-5.1588000 z"
     style="stroke:#000000;fill:#ffffff;"
     id="path52" />
  <path
     d="M790,170c -1.222, -2.208, -2.718, -3.996, -4.218, -5.246c -1.75, 1.282, -3.882, 2.062, -6.206, 2.062c -2.328, 0, -4.462, -0.782, -6.21, -2.062c -1.5, 1.25, -2.996, 3.038, -4.222, 5.246c -2.844, 5.126, -3.156, 10.384, -0.7, 11.748c 1.1, 0.614, 2.254, 0.156, 3.446, -0.992c -0.21, 1.164, -0.332, 2.426, -0.332, 3.746c 0, 5.864, 2.278, 10.614, 5.086, 10.614c 1.692, 0, 2.53, -1.73, 2.932, -4.378c 0.402, 2.648, 1.24, 4.378, 2.926, 4.378c 2.812, 0, 5.09, -4.75, 5.09, -10.614c 0, -1.32, -0.122, -2.582, -0.336, -3.746c 1.196, 1.148, 2.348, 1.606, 3.45, 0.992 C793.162,180.384,792.844,175.126,790,170z M 779.574,164.816c 4.724, 0, 8.556, -3.832, 8.556, -8.558s, -3.832, -8.558, -8.556, -8.558,c -4.726, 0, -8.56, 3.832, -8.56, 8.558S774.848,164.81,779.574,164.816z"
     style="stroke:#000000;fill:#ffffff;"
     id="path54" />
  <path
     d="M910,170c -1.222, -2.208, -2.718, -3.996, -4.218, -5.246c -1.75, 1.282, -3.882, 2.062, -6.206, 2.062c -2.328, 0, -4.462, -0.782, -6.21, -2.062c -1.5, 1.25, -2.996, 3.038, -4.222, 5.246c -2.844, 5.126, -3.156, 10.384, -0.7, 11.748c 1.1, 0.614, 2.254, 0.156, 3.446, -0.992c -0.21, 1.164, -0.332, 2.426, -0.332, 3.746c 0, 5.864, 2.278, 10.614, 5.086, 10.614c 1.692, 0, 2.53, -1.73, 2.932, -4.378c 0.402, 2.648, 1.24, 4.378, 2.926, 4.378c 2.812, 0, 5.09, -4.75, 5.09, -10.614c 0, -1.32, -0.122, -2.582, -0.336, -3.746c 1.196, 1.148, 2.348, 1.606, 3.45, 0.992 C913.162,180.384,912.844,175.126,910,170z M 899.574,164.816c 4.724, 0, 8.556, -3.832, 8.556, -8.558s, -3.832, -8.558, -8.556, -8.558,c -4.726, 0, -8.56, 3.832, -8.56, 8.558S894.848,164.81,899.574,164.816z M905,141c -0.7515780,-0.5142000 -0.6990756,-0.9420000 -1.8431052,-0.5142000 -3.6005202,0.2610000 -0.7295802,0.2436000 -4.4172258,-0.1152000 -1.5917604,-0.5892000 -2.0858802,3.8466000 -2.5025784,4.1904000 -0.5155596,0.4266000 -5.2704360,0.0240000 -4.9419198,2.9796000 0.0743646,0.6642000 1.4045370,0.5154000 4.1009826,-0.4824000 2.9601450,-1.0974000 5.4507636,-1.0278000 9.0864936,0.1608000 1.4812950,0.4836000 4.5045612,1.0848000 4.8923892,0.9558000 0.9584010,-0.3192000 -2.1803622,-1.6518000 -3.1263870,-2.0160000 -0.5157186,-3.9420000 -0.5185884,-4.3968000 -1.2486492,-5.1588000 z"
     style="stroke:#000000;fill:#ffffff;"
     id="path56" />
  <path
     d="M1030,170c -1.222, -2.208, -2.718, -3.996, -4.218, -5.246c -1.75, 1.282, -3.882, 2.062, -6.206, 2.062c -2.328, 0, -4.462, -0.782, -6.21, -2.062c -1.5, 1.25, -2.996, 3.038, -4.222, 5.246c -2.844, 5.126, -3.156, 10.384, -0.7, 11.748c 1.1, 0.614, 2.254, 0.156, 3.446, -0.992c -0.21, 1.164, -0.332, 2.426, -0.332, 3.746c 0, 5.864, 2.278, 10.614, 5.086, 10.614c 1.692, 0, 2.53, -1.73, 2.932, -4.378c 0.402, 2.648, 1.24, 4.378, 2.926, 4.378c 2.812, 0, 5.09, -4.75, 5.09, -10.614c 0, -1.32, -0.122, -2.582, -0.336, -3.746c 1.196, 1.148, 2.348, 1.606, 3.45, 0.992 C1033.162,180.384,1032.844,175.126,1030,170z M 1019.574,164.816c 4.724, 0, 8.556, -3.832, 8.556, -8.558s, -3.832, -8.558, -8.556, -8.558,c -4.726, 0, -8.56, 3.832, -8.56, 8.558S1014.848,164.81,1019.574,164.816z"
     style="stroke:#000000;fill:#ffffff;"
     id="path58" />
  <path
     d="M1150,170c -1.222, -2.208, -2.718, -3.996, -4.218, -5.246c -1.75, 1.282, -3.882, 2.062, -6.206, 2.062c -2.328, 0, -4.462, -0.782, -6.21, -2.062c -1.5, 1.25, -2.996, 3.038, -4.222, 5.246c -2.844, 5.126, -3.156, 10.384, -0.7, 11.748c 1.1, 0.614, 2.254, 0.156, 3.446, -0.992c -0.21, 1.164, -0.332, 2.426, -0.332, 3.746c 0, 5.864, 2.278, 10.614, 5.086, 10.614c 1.692, 0, 2.53, -1.73, 2.932, -4.378c 0.402, 2.648, 1.24, 4.378, 2.926, 4.378c 2.812, 0, 5.09, -4.75, 5.09, -10.614c 0, -1.32, -0.122, -2.582, -0.336, -3.746c 1.196, 1.148, 2.348, 1.606, 3.45, 0.992 C1153.162,180.384,1152.844,175.126,1150,170z M 1139.574,164.816c 4.724, 0, 8.556, -3.832, 8.556, -8.558s, -3.832, -8.558, -8.556, -8.558,c -4.726, 0, -8.56, 3.832, -8.56, 8.558S1134.848,164.81,1139.574,164.816z M1145,141c -0.7515780,-0.5142000 -0.6990756,-0.9420000 -1.8431052,-0.5142000 -3.6005202,0.2610000 -0.7295802,0.2436000 -4.4172258,-0.1152000 -1.5917604,-0.5892000 -2.0858802,3.8466000 -2.5025784,4.1904000 -0.5155596,0.4266000 -5.2704360,0.0240000 -4.9419198,2.9796000 0.0743646,0.6642000 1.4045370,0.5154000 4.1009826,-0.4824000 2.9601450,-1.0974000 5.4507636,-1.0278000 9.0864936,0.1608000 1.4812950,0.4836000 4.5045612,1.0848000 4.8923892,0.9558000 0.9584010,-0.3192000 -2.1803622,-1.6518000 -3.1263870,-2.0160000 -0.5157186,-3.9420000 -0.5185884,-4.3968000 -1.2486492,-5.1588000 z"
     style="stroke:#000000;fill:#ffffff;"
     id="path60" />
  <path
     d="M190,50c -1.222, -2.208, -2.718, -3.996, -4.218, -5.246c -1.75, 1.282, -3.882, 2.062, -6.206, 2.062c -2.328, 0, -4.462, -0.782, -6.21, -2.062c -1.5, 1.25, -2.996, 3.038, -4.222, 5.246c -2.844, 5.126, -3.156, 10.384, -0.7, 11.748c 1.1, 0.614, 2.254, 0.156, 3.446, -0.992c -0.21, 1.164, -0.332, 2.426, -0.332, 3.746c 0, 5.864, 2.278, 10.614, 5.086, 10.614c 1.692, 0, 2.53, -1.73, 2.932, -4.378c 0.402, 2.648, 1.24, 4.378, 2.926, 4.378c 2.812, 0, 5.09, -4.75, 5.09, -10.614c 0, -1.32, -0.122, -2.582, -0.336, -3.746c 1.196, 1.148, 2.348, 1.606, 3.45, 0.992 C193.162,60.384,192.844,55.126,190,50z M 179.574,44.816c 4.724, 0, 8.556, -3.832, 8.556, -8.558s, -3.832, -8.558, -8.556, -8.558,c -4.726, 0, -8.56, 3.832, -8.56, 8.558S174.848,44.81,179.574,44.816z M185,21c -0.7515780,-0.5142000 -0.6990756,-0.9420000 -1.8431052,-0.5142000 -3.6005202,0.2610000 -0.7295802,0.2436000 -4.4172258,-0.1152000 -1.5917604,-0.5892000 -2.0858802,3.8466000 -2.5025784,4.1904000 -0.5155596,0.4266000 -5.2704360,0.0240000 -4.9419198,2.9796000 0.0743646,0.6642000 1.4045370,0.5154000 4.1009826,-0.4824000 2.9601450,-1.0974000 5.4507636,-1.0278000 9.0864936,0.1608000 1.4812950,0.4836000 4.5045612,1.0848000 4.8923892,0.9558000 0.9584010,-0.3192000 -2.1803622,-1.6518000 -3.1263870,-2.0160000 -0.5157186,-3.9420000 -0.5185884,-4.3968000 -1.2486492,-5.1588000 z"
     style="stroke:#000000;fill:#ffffff;"
     id="path62" />
  <path
     d="M310,50c -1.222, -2.208, -2.718, -3.996, -4.218, -5.246c -1.75, 1.282, -3.882, 2.062, -6.206, 2.062c -2.328, 0, -4.462, -0.782, -6.21, -2.062c -1.5, 1.25, -2.996, 3.038, -4.222, 5.246c -2.844, 5.126, -3.156, 10.384, -0.7, 11.748c 1.1, 0.614, 2.254, 0.156, 3.446, -0.992c -0.21, 1.164, -0.332, 2.426, -0.332, 3.746c 0, 5.864, 2.278, 10.614, 5.086, 10.614c 1.692, 0, 2.53, -1.73, 2.932, -4.378c 0.402, 2.648, 1.24, 4.378, 2.926, 4.378c 2.812, 0, 5.09, -4.75, 5.09, -10.614c 0, -1.32, -0.122, -2.582, -0.336, -3.746c 1.196, 1.148, 2.348, 1.606, 3.45, 0.992 C313.162,60.384,312.844,55.126,310,50z M 299.574,44.816c 4.724, 0, 8.556, -3.832, 8.556, -8.558s, -3.832, -8.558, -8.556, -8.558,c -4.726, 0, -8.56, 3.832, -8.56, 8.558S294.848,44.81,299.574,44.816z"
     style="stroke:#000000;fill:#ffffff;"
     id="path64" />
  <path
     d="M430,50c -1.222, -2.208, -2.718, -3.996, -4.218, -5.246c -1.75, 1.282, -3.882, 2.062, -6.206, 2.062c -2.328, 0, -4.462, -0.782, -6.21, -2.062c -1.5, 1.25, -2.996, 3.038, -4.222, 5.246c -2.844, 5.126, -3.156, 10.384, -0.7, 11.748c 1.1, 0.614, 2.254, 0.156, 3.446, -0.992c -0.21, 1.164, -0.332, 2.426, -0.332, 3.746c 0, 5.864, 2.278, 10.614, 5.086, 10.614c 1.692, 0, 2.53, -1.73, 2.932, -4.378c 0.402, 2.648, 1.24, 4.378, 2.926, 4.378c 2.812, 0, 5.09, -4.75, 5.09, -10.614c 0, -1.32, -0.122, -2.582, -0.336, -3.746c 1.196, 1.148, 2.348, 1.606, 3.45, 0.992 C433.162,60.384,432.844,55.126,430,50z M 419.574,44.816c 4.724, 0, 8.556, -3.832, 8.556, -8.558s, -3.832, -8.558, -8.556, -8.558,c -4.726, 0, -8.56, 3.832, -8.56, 8.558S414.848,44.81,419.574,44.816z M425,21c -0.7515780,-0.5142000 -0.6990756,-0.9420000 -1.8431052,-0.5142000 -3.6005202,0.2610000 -0.7295802,0.2436000 -4.4172258,-0.1152000 -1.5917604,-0.5892000 -2.0858802,3.8466000 -2.5025784,4.1904000 -0.5155596,0.4266000 -5.2704360,0.0240000 -4.9419198,2.9796000 0.0743646,0.6642000 1.4045370,0.5154000 4.1009826,-0.4824000 2.9601450,-1.0974000 5.4507636,-1.0278000 9.0864936,0.1608000 1.4812950,0.4836000 4.5045612,1.0848000 4.8923892,0.9558000 0.9584010,-0.3192000 -2.1803622,-1.6518000 -3.1263870,-2.0160000 -0.5157186,-3.9420000 -0.5185884,-4.3968000 -1.2486492,-5.1588000 z"
     style="stroke:#000000;fill:#ffffff;"
     id="path66" />
  <path
     d="M550,50c -1.222, -2.208, -2.718, -3.996, -4.218, -5.246c -1.75, 1.282, -3.882, 2.062, -6.206, 2.062c -2.328, 0, -4.462, -0.782, -6.21, -2.062c -1.5, 1.25, -2.996, 3.038, -4.222, 5.246c -2.844, 5.126, -3.156, 10.384, -0.7, 11.748c 1.1, 0.614, 2.254, 0.156, 3.446, -0.992c -0.21, 1.164, -0.332, 2.426, -0.332, 3.746c 0, 5.864, 2.278, 10.614, 5.086, 10.614c 1.692, 0, 2.53, -1.73, 2.932, -4.378c 0.402, 2.648, 1.24, 4.378, 2.926, 4.378c 2.812, 0, 5.09, -4.75, 5.09, -10.614c 0, -1.32, -0.122, -2.582, -0.336, -3.746c 1.196, 1.148, 2.348, 1.606, 3.45, 0.992 C553.162,60.384,552.844,55.126,550,50z M 539.574,44.816c 4.724, 0, 8.556, -3.832, 8.556, -8.558s, -3.832, -8.558, -8.556, -8.558,c -4.726, 0, -8.56, 3.832, -8.56, 8.558S534.848,44.81,539.574,44.816z"
     style="stroke:#000000;fill:#ffffff;"
     id="path68" />
  <path
     d="M790,50c -1.222, -2.208, -2.718, -3.996, -4.218, -5.246c -1.75, 1.282, -3.882, 2.062, -6.206, 2.062c -2.328, 0, -4.462, -0.782, -6.21, -2.062c -1.5, 1.25, -2.996, 3.038, -4.222, 5.246c -2.844, 5.126, -3.156, 10.384, -0.7, 11.748c 1.1, 0.614, 2.254, 0.156, 3.446, -0.992c -0.21, 1.164, -0.332, 2.426, -0.332, 3.746c 0, 5.864, 2.278, 10.614, 5.086, 10.614c 1.692, 0, 2.53, -1.73, 2.932, -4.378c 0.402, 2.648, 1.24, 4.378, 2.926, 4.378c 2.812, 0, 5.09, -4.75, 5.09, -10.614c 0, -1.32, -0.122, -2.582, -0.336, -3.746c 1.196, 1.148, 2.348, 1.606, 3.45, 0.992 C793.162,60.384,792.844,55.126,790,50z M 779.574,44.816c 4.724, 0, 8.556, -3.832, 8.556, -8.558s, -3.832, -8.558, -8.556, -8.558,c -4.726, 0, -8.56, 3.832, -8.56, 8.558S774.848,44.81,779.574,44.816z M785,21c -0.7515780,-0.5142000 -0.6990756,-0.9420000 -1.8431052,-0.5142000 -3.6005202,0.2610000 -0.7295802,0.2436000 -4.4172258,-0.1152000 -1.5917604,-0.5892000 -2.0858802,3.8466000 -2.5025784,4.1904000 -0.5155596,0.4266000 -5.2704360,0.0240000 -4.9419198,2.9796000 0.0743646,0.6642000 1.4045370,0.5154000 4.1009826,-0.4824000 2.9601450,-1.0974000 5.4507636,-1.0278000 9.0864936,0.1608000 1.4812950,0.4836000 4.5045612,1.0848000 4.8923892,0.9558000 0.9584010,-0.3192000 -2.1803622,-1.6518000 -3.1263870,-2.0160000 -0.5157186,-3.9420000 -0.5185884,-4.3968000 -1.2486492,-5.1588000 z"
     style="stroke:#000000;fill:#ffffff;"
     id="path70" />
  <path
     d="M910,50c -1.222, -2.208, -2.718, -3.996, -4.218, -5.246c -1.75, 1.282, -3.882, 2.062, -6.206, 2.062c -2.328, 0, -4.462, -0.782, -6.21, -2.062c -1.5, 1.25, -2.996, 3.038, -4.222, 5.246c -2.844, 5.126, -3.156, 10.384, -0.7, 11.748c 1.1, 0.614, 2.254, 0.156, 3.446, -0.992c -0.21, 1.164, -0.332, 2.426, -0.332, 3.746c 0, 5.864, 2.278, 10.614, 5.086, 10.614c 1.692, 0, 2.53, -1.73, 2.932, -4.378c 0.402, 2.648, 1.24, 4.378, 2.926, 4.378c 2.812, 0, 5.09, -4.75, 5.09, -10.614c 0, -1.32, -0.122, -2.582, -0.336, -3.746c 1.196, 1.148, 2.348, 1.606, 3.45, 0.992 C913.162,60.384,912.844,55.126,910,50z M 899.574,44.816c 4.724, 0, 8.556, -3.832, 8.556, -8.558s, -3.832, -8.558, -8.556, -8.558,c -4.726, 0, -8.56, 3.832, -8.56, 8.558S894.848,44.81,899.574,44.816z"
     style="stroke:#000000;fill:#ffffff;"
     id="path72" />
  <path
     d="M1030,50c -1.222, -2.208, -2.718, -3.996, -4.218, -5.246c -1.75, 1.282, -3.882, 2.062, -6.206, 2.062c -2.328, 0, -4.462, -0.782, -6.21, -2.062c -1.5, 1.25, -2.996, 3.038, -4.222, 5.246c -2.844, 5.126, -3.156, 10.384, -0.7, 11.748c 1.1, 0.614, 2.254, 0.156, 3.446, -0.992c -0.21, 1.164, -0.332, 2.426, -0.332, 3.746c 0, 5.864, 2.278, 10.614, 5.086, 10.614c 1.692, 0, 2.53, -1.73, 2.932, -4.378c 0.402, 2.648, 1.24, 4.378, 2.926, 4.378c 2.812, 0, 5.09, -4.75, 5.09, -10.614c 0, -1.32, -0.122, -2.582, -0.336, -3.746c 1.196, 1.148, 2.348, 1.606, 3.45, 0.992 C1033.162,60.384,1032.844,55.126,1030,50z M 1019.574,44.816c 4.724, 0, 8.556, -3.832, 8.556, -8.558s, -3.832, -8.558, -8.556, -8.558,c -4.726, 0, -8.56, 3.832, -8.56, 8.558S1014.848,44.81,1019.574,44.816z M1025,21c -0.7515780,-0.5142000 -0.6990756,-0.9420000 -1.8431052,-0.5142000 -3.6005202,0.2610000 -0.7295802,0.2436000 -4.4172258,-0.1152000 -1.5917604,-0.5892000 -2.0858802,3.8466000 -2.5025784,4.1904000 -0.5155596,0.4266000 -5.2704360,0.0240000 -4.9419198,2.9796000 0.0743646,0.6642000 1.4045370,0.5154000 4.1009826,-0.4824000 2.9601450,-1.0974000 5.4507636,-1.0278000 9.0864936,0.1608000 1.4812950,0.4836000 4.5045612,1.0848000 4.8923892,0.9558000 0.9584010,-0.3192000 -2.1803622,-1.6518000 -3.1263870,-2.0160000 -0.5157186,-3.9420000 -0.5185884,-4.3968000 -1.2486492,-5.1588000 z"
     style="stroke:#000000;fill:#ffffff;"
     id="path74" />
  <path
     d="M1150,50c -1.222, -2.208, -2.718, -3.996, -4.218, -5.246c -1.75, 1.282, -3.882, 2.062, -6.206, 2.062c -2.328, 0, -4.462, -0.782, -6.21, -2.062c -1.5, 1.25, -2.996, 3.038, -4.222, 5.246c -2.844, 5.126, -3.156, 10.384, -0.7, 11.748c 1.1, 0.614, 2.254, 0.156, 3.446, -0.992c -0.21, 1.164, -0.332, 2.426, -0.332, 3.746c 0, 5.864, 2.278, 10.614, 5.086, 10.614c 1.692, 0, 2.53, -1.73, 2.932, -4.378c 0.402, 2.648, 1.24, 4.378, 2.926, 4.378c 2.812, 0, 5.09, -4.75, 5.09, -10.614c 0, -1.32, -0.122, -2.582, -0.336, -3.746c 1.196, 1.148, 2.348, 1.606, 3.45, 0.992 C1153.162,60.384,1152.844,55.126,1150,50z M 1139.574,44.816c 4.724, 0, 8.556, -3.832, 8.556, -8.558s, -3.832, -8.558, -8.556, -8.558,c -4.726, 0, -8.56, 3.832, -8.56, 8.558S1134.848,44.81,1139.574,44.816z"
     style="stroke:#000000;fill:#ffffff;"
     id="path76" />
  <path
     d="M 180,80 v 20, h 60, v 20, h -60, v 20"
     style="stroke:#000000;fill:none;"
     id="path78" />
  <path
     d="M 300,80 v 20, h -60, v 20, h 60, v 20"
     style="stroke:#000000;fill:none;"
     id="path80" />
  <path
     d="M 420,80 v 20, h 60, v 20, h -60, v 20"
     style="stroke:#000000;fill:none;"
     id="path82" />
  <path
     d="M 540,80 v 20, h -60, v 20, h 60, v 20"
     style="stroke:#000000;fill:none;"
     id="path84" />
  <path
     d="M 780,80 v 20, h 60, v 20, h -60, v 20"
     style="stroke:#000000;fill:none;"
     id="path86" />
  <path
     d="M 900,80 v 20, h -60, v 20, h 60, v 20"
     style="stroke:#000000;fill:none;"
     id="path88" />
  <path
     d="M 1020,80 v 20, h 60, v 20, h -60, v 20"
     style="stroke:#000000;fill:none;"
     id="path90" />
  <path
     d="M 1140,80 v 20, h -60, v 20, h 60, v 20"
     style="stroke:#000000;fill:none;"
     id="path92" />
  <path
     d="M 60,320 v 20, h 60, v 20, h -60, v 20"
     style="stroke:#000000;fill:none;"
     id="path94" />
  <path
     d="M 180,320 v 20, h -60, v 20, h 60, v 20"
     style="stroke:#000000;fill:none;"
     id="path96" />
  <path
     d="M 420,320 v 20, h -60, v 20, h 60, v 20"
     style="stroke:#000000;fill:none;"
     id="path98" />
  <path
     d="M 300,320 v 20, h 60, v 20, h -60, v 20"
     style="stroke:#000000;fill:none;"
     id="path100" />
  <path
     d="M 900,320 v 20, h 60, v 20, h -60, v 20"
     style="stroke:#000000;fill:none;"
     id="path102" />
  <path
     d="M 1020,320 v 20, h -60, v 20, h 60, v 20"
     style="stroke:#000000;fill:none;"
     id="path104" />
  <path
     d="M 1260,320 v 20, h -60, v 20, h 60, v 20"
     style="stroke:#000000;fill:none;"
     id="path106" />
  <path
     d="M 1140,320 v 20, h 60, v 20, h -60, v 20"
     style="stroke:#000000;fill:none;"
     id="path108" />
  <path
     d="M 300,200 v 20, h 60, v 20, h 240, v 20"
     style="stroke:#000000;fill:none;"
     id="path110" />
  <path
     d="M 420,200 v 20, h -60, v 20, h -180, v 20"
     style="stroke:#000000;fill:none;"
     id="path112" />
  <path
     d="M 300,240 v 20"
     style="stroke:#000000;fill:none;"
     id="path114" />
  <path
     d="M 1020,200 v 20, h -60, v 20, h -240, v 20"
     style="stroke:#000000;fill:none;"
     id="path116" />
  <path
     d="M 900,200 v 20, h 60, v 20, h 300, v 20"
     style="stroke:#000000;fill:none;"
     id="path118" />
  <path
     d="M 900,240 v 20"
     style="stroke:#000000;fill:none;"
     id="path120" />
  <path
     d="M 720,320 v 20, h -60, v 20, h 120, v 20"
     style="stroke:#000000;fill:none;"
     id="path122" />
  <path
     d="M 600,320 v 20, h 60, v 20, h -120, v 20"
     style="stroke:#000000;fill:none;"
     id="path124" />
  <path
     d="M 660,360 v 20"
     style="stroke:#000000;fill:none;"
     id="path126" />
</svg>
